<svg xmlns="http://www.w3.org/2000/svg" width="30" height="36" viewBox="0 0 30 36"><defs><mask id="yuofb" width="2.07" height="2.06" x="-1.04" y="-1.03"><path fill="#fff" d="M0-1h30v34H0z"/><path d="M2.922 7.978h23.361v19.615c0 2.163-1.746 3.924-3.893 3.924H6.816c-2.148 0-3.894-1.76-3.894-3.924zM28.23 2.094v3.923H.976V2.094h9.733V.132h7.787v1.962z"/></mask><filter id="yuofa" width="50.2" height="57" x="-10" y="-11" filterUnits="userSpaceOnUse"><feOffset dx=".2" dy="3" in="SourceGraphic" result="FeOffset1164Out"/><feGaussianBlur in="FeOffset1164Out" result="FeGaussianBlur1165Out" stdDeviation="0 0"/></filter></defs><g><g><g filter="url(#yuofa)"><path fill="none" stroke="#8c0606" stroke-opacity=".61" stroke-width="2" d="M2.922 7.978h23.361v19.615c0 2.163-1.746 3.924-3.893 3.924H6.816c-2.148 0-3.894-1.76-3.894-3.924zM28.23 2.094v3.923H.976V2.094h9.733V.132h7.787v1.962z" mask="url(&quot;#yuofb&quot;)"/><path fill="#8c0606" fill-opacity=".61" d="M2.922 7.978h23.361v19.615c0 2.163-1.746 3.924-3.893 3.924H6.816c-2.148 0-3.894-1.76-3.894-3.924zM28.23 2.094v3.923H.976V2.094h9.733V.132h7.787v1.962z"/></g><path fill="#ebeef3" d="M2.922 7.978h23.361v19.615c0 2.163-1.746 3.924-3.893 3.924H6.816c-2.148 0-3.894-1.76-3.894-3.924zM28.23 2.094v3.923H.976V2.094h9.733V.132h7.787v1.962z"/></g></g></svg>