<svg xmlns="http://www.w3.org/2000/svg" width="21" height="32" viewBox="0 0 21 32"><defs><mask id="dyyub" width="2.11" height="2.07" x="-1.05" y="-1.04"><path fill="#fff" d="M0-1h21v30H0z"/><path d="M11.912 27.426l7.548-9.566c.975-.943.284-2.557-1.094-2.557h-4.727V2.108c0-.827-.693-1.498-1.547-1.498H9.544c-.854 0-1.547.67-1.547 1.498v13.195H3.27c-1.378 0-2.068 1.614-1.094 2.557l7.548 9.566a1.583 1.583 0 0 0 2.188 0z"/></mask><filter id="dyyua" width="41.2" height="53" x="-10" y="-11" filterUnits="userSpaceOnUse"><feOffset dx=".2" dy="3" in="SourceGraphic" result="FeOffset1135Out"/><feGaussianBlur in="FeOffset1135Out" result="FeGaussianBlur1136Out" stdDeviation="0 0"/></filter></defs><g><g><g filter="url(#dyyua)"><path fill="none" stroke="#000" stroke-opacity=".33" stroke-width="2" d="M11.912 27.426l7.548-9.566c.975-.943.284-2.557-1.094-2.557h-4.727v0V2.108c0-.827-.693-1.498-1.547-1.498H9.544c-.854 0-1.547.67-1.547 1.498v13.195H3.27c-1.378 0-2.068 1.614-1.094 2.557l7.548 9.566a1.583 1.583 0 0 0 2.188 0z" mask="url(&quot;#dyyub&quot;)"/><path fill-opacity=".33" d="M11.912 27.426l7.548-9.566c.975-.943.284-2.557-1.094-2.557h-4.727V2.108c0-.827-.693-1.498-1.547-1.498H9.544c-.854 0-1.547.67-1.547 1.498v13.195H3.27c-1.378 0-2.068 1.614-1.094 2.557l7.548 9.566a1.583 1.583 0 0 0 2.188 0z"/></g><path fill="#fff" d="M11.912 27.426l7.548-9.566c.975-.943.284-2.557-1.094-2.557h-4.727V2.108c0-.827-.693-1.498-1.547-1.498H9.544c-.854 0-1.547.67-1.547 1.498v13.195H3.27c-1.378 0-2.068 1.614-1.094 2.557l7.548 9.566a1.583 1.583 0 0 0 2.188 0z"/></g></g></svg>