<svg xmlns="http://www.w3.org/2000/svg" width="21" height="32" viewBox="0 0 21 32"><defs><mask id="ftr2b" width="2.11" height="2.07" x="-1.05" y="-1.04"><path fill="#fff" d="M0-1h21v30H0z"/><path d="M9.093 1.05l-7.537 9.564c-.974.944-.284 2.557 1.092 2.557h4.72v13.196c0 .827.692 1.498 1.545 1.498h2.544c.853 0 1.545-.67 1.545-1.498V13.171h4.72c1.376 0 2.066-1.613 1.092-2.557L11.277 1.05a1.58 1.58 0 0 0-2.184 0z"/></mask><filter id="ftr2a" width="41.2" height="53" x="-10" y="-11" filterUnits="userSpaceOnUse"><feOffset dx=".2" dy="3" in="SourceGraphic" result="FeOffset1115Out"/><feGaussianBlur in="FeOffset1115Out" result="FeGaussianBlur1116Out" stdDeviation="0 0"/></filter></defs><g><g><g filter="url(#ftr2a)"><path fill="none" stroke="#000" stroke-opacity=".33" stroke-width="2" d="M9.093 1.05l-7.537 9.564c-.974.944-.284 2.557 1.092 2.557h4.72v13.196c0 .827.692 1.498 1.545 1.498h2.544c.853 0 1.545-.67 1.545-1.498V13.171v0h4.72c1.376 0 2.066-1.613 1.092-2.557L11.277 1.05a1.58 1.58 0 0 0-2.184 0z" mask="url(&quot;#ftr2b&quot;)"/><path fill-opacity=".33" d="M9.093 1.05l-7.537 9.564c-.974.944-.284 2.557 1.092 2.557h4.72v13.196c0 .827.692 1.498 1.545 1.498h2.544c.853 0 1.545-.67 1.545-1.498V13.171h4.72c1.376 0 2.066-1.613 1.092-2.557L11.277 1.05a1.58 1.58 0 0 0-2.184 0z"/></g><path fill="#fff" d="M9.093 1.05l-7.537 9.564c-.974.944-.284 2.557 1.092 2.557h4.72v13.196c0 .827.692 1.498 1.545 1.498h2.544c.853 0 1.545-.67 1.545-1.498V13.171h4.72c1.376 0 2.066-1.613 1.092-2.557L11.277 1.05a1.58 1.58 0 0 0-2.184 0z"/></g></g></svg>